<?xml version="1.0" encoding="UTF-8"?>
<svg width="44px" height="44px" viewBox="0 0 44 44" version="1.1" xmlns="http://www.w3.org/2000/svg" xmlns:xlink="http://www.w3.org/1999/xlink">
    <!-- Generator: Sketch 41.2 (35397) - http://www.bohemiancoding.com/sketch -->
    <title>Group 7</title>
    <desc>Created with Sketch.</desc>
    <defs></defs>
    <g id="Page-1" stroke="none" stroke-width="1" fill="none" fill-rule="evenodd">
        <g id="Desktop-HD" transform="translate(-165.000000, -14.000000)">
            <g id="Group-7" transform="translate(165.000000, 14.000000)">
                <circle id="Oval-2" fill="#486CFF" cx="22" cy="22" r="22"></circle>
                <rect id="Rectangle-6" fill="#FFFFFF" x="12" y="14.8333333" width="20" height="19.1666667" rx="3"></rect>
                <path d="M27.9991858,13.4015741 C29.2565594,13.4015741 30.2758621,12.4162482 30.2758621,11.2007871 C30.2758621,9.98532593 29.2565594,9 27.9991858,9 C26.9080009,9 23.4458333,13.4015741 23.4458333,13.4015741 C23.4458333,13.4015741 24.1487585,13.4160212 24.9636174,13.4015741 C25.7784764,13.3871271 27.2918371,13.4015741 27.9991858,13.4015741 Z" id="Oval-2" stroke="#FFFFFF" stroke-width="2" fill="#D8D8D8"></path>
                <path d="M18.3440134,13.4015741 C19.601387,13.4015741 20.6206897,12.4162482 20.6206897,11.2007871 C20.6206897,9.98532593 19.601387,9 18.3440134,9 C17.2528285,9 13.7906609,13.4015741 13.7906609,13.4015741 C13.7906609,13.4015741 14.493586,13.4160212 15.308445,13.4015741 C16.123304,13.3871271 17.6366647,13.4015741 18.3440134,13.4015741 Z" id="Oval-2" stroke="#FFFFFF" stroke-width="2" fill="#D8D8D8" transform="translate(17.205675, 11.203998) scale(-1, 1) translate(-17.205675, -11.203998) "></path>
            </g>
        </g>
    </g>
</svg>